<?xml version="1.0" encoding="UTF-8"?><svg id="Layer_1" xmlns="http://www.w3.org/2000/svg" viewBox="0 0 345 155.78"><path d="M5.31,6.01l.32-4.03c.05-.8,.64-1.34,1.45-1.34H29.57c.81,0,1.4,.54,1.45,1.34l.32,4.03c.05,.8-.43,1.34-1.23,1.34h-6.07c-.81,0-1.34,.54-1.34,1.34v29.95c0,.8-.54,1.34-1.34,1.34h-6.12c-.81,0-1.34-.54-1.34-1.34V8.7c0-.8-.54-1.34-1.34-1.34H6.54c-.81,0-1.29-.54-1.23-1.34Zm31.78,33.98h6.12c.81,0,1.34-.54,1.34-1.34v-9.77c0-.8,.54-1.34,1.34-1.34h8.64c.8,0,1.34,.54,1.34,1.34v9.77c0,.8,.54,1.34,1.34,1.34h6.12c.8,0,1.34-.54,1.34-1.34V1.99c0-.8-.54-1.34-1.34-1.34h-6.12c-.8,0-1.34,.54-1.34,1.34V19.49c0,.8-.54,1.34-1.34,1.34h-8.64c-.81,0-1.34-.54-1.34-1.34V1.99c0-.8-.54-1.34-1.34-1.34h-6.12c-.81,0-1.34,.54-1.34,1.34V38.65c0,.8,.54,1.34,1.34,1.34Zm54.49-1.34l.32-4.03c.05-.8-.43-1.34-1.23-1.34h-9.93c-.81,0-1.34-.54-1.34-1.34v-3.06c0-.8,.54-1.34,1.34-1.34h7.25c.8,0,1.4-.54,1.45-1.34l.32-4.03c.05-.8-.43-1.34-1.23-1.34h-7.78c-.81,0-1.34-.54-1.34-1.34V8.7c0-.8,.54-1.34,1.34-1.34h9.93c.81,0,1.29-.54,1.23-1.34l-.32-4.03c-.05-.8-.64-1.34-1.45-1.34h-18.2c-.81,0-1.34,.54-1.34,1.34V38.65c0,.8,.54,1.34,1.34,1.34h18.2c.81,0,1.4-.54,1.45-1.34Zm23.25,1.34h6.12c.81,0,1.34-.54,1.34-1.34v-9.77c0-.8,.54-1.34,1.34-1.34h6.17c.81,0,1.4-.54,1.45-1.34l.32-4.03c.05-.8-.43-1.34-1.23-1.34h-6.71c-.81,0-1.34-.54-1.34-1.34V8.7c0-.8,.54-1.34,1.34-1.34h9.93c.8,0,1.29-.54,1.23-1.34l-.32-4.03c-.05-.8-.64-1.34-1.45-1.34h-18.2c-.81,0-1.34,.54-1.34,1.34V38.65c0,.8,.54,1.34,1.34,1.34Zm26.25,0h18.73c.81,0,1.4-.54,1.45-1.34l.32-4.03c.05-.8-.43-1.34-1.23-1.34h-10.47c-.81,0-1.34-.54-1.34-1.34V1.99c0-.8-.54-1.34-1.34-1.34h-6.12c-.81,0-1.34,.54-1.34,1.34V38.65c0,.8,.54,1.34,1.34,1.34Zm23.3-19.75C164.37,9.5,173.55,.11,184.5,.11s20.13,9.18,20.13,20.13-9.18,19.86-20.13,20.13c-10.58,0-20.13-8.8-20.13-20.13Zm9.18,0c0,6.33,4.19,12.62,10.95,13.04,6.23,0,10.95-6.23,10.95-13.04,0-6.07-4.19-13.04-10.95-13.04s-10.95,6.39-10.95,13.04Zm33.77,0C207.32,9.5,216.5,.11,227.45,.11s20.13,9.18,20.13,20.13-9.18,19.86-20.13,20.13c-10.58,0-20.13-8.8-20.13-20.13Zm9.18,0c0,6.33,4.19,12.62,10.95,13.04,6.23,0,10.95-6.23,10.95-13.04,0-6.07-4.19-13.04-10.95-13.04s-10.95,6.39-10.95,13.04Zm35.92,18.41V1.99c0-.8,.54-1.34,1.34-1.34h11.06c7.03,0,13.15,6.01,13.15,13.21,0,3.65-1.61,7.14-4.35,9.66-.21,.27-.54,1.02-.27,1.61l5.53,13.63c.27,.7-.05,1.23-.86,1.23h-6.82c-.81,0-1.56-.54-1.83-1.23l-4.24-10.47c-.27-.7-.91-1.23-1.5-1.23h-1.07c-.81,0-1.34,.54-1.34,1.34v10.25c0,.8-.54,1.34-1.34,1.34h-6.12c-.81,0-1.34-.54-1.34-1.34Zm8.8-19.65c0,.81,.54,1.34,1.34,1.34h1.66c3.38,0,5.21-2.79,5.37-6.5,.16-3.22-1.72-6.5-5.37-6.5h-1.66c-.81,0-1.34,.54-1.34,1.34v10.31Zm40.58,20.99h6.12c.81,0,1.34-.54,1.34-1.34V1.99c0-.8-.54-1.34-1.34-1.34h-6.12c-.81,0-1.34,.54-1.34,1.34V38.65c0,.8,.54,1.34,1.34,1.34Zm25.28,.64h.05c6.01-.16,12.56-4.99,12.56-11.7s-5.21-9.98-9.5-12.4c-3.27-1.88-6.39-3.65-6.39-5.37,0-2.09,2.2-2.9,4.08-2.9,.91,0,1.88,.27,2.95,.75,1.88,.64,2.95,.16,3.86-.86l1.45-1.5c1.34-1.34,1.29-3.44-.38-4.4-2.36-1.34-5.15-2.25-7.89-2.25-6.07,0-12.35,3.81-12.35,11.27,0,6.6,5.69,9.61,9.98,12.19,3.01,1.72,5.9,2.9,5.9,5.53,0,1.24-1.77,3.38-4.35,3.38-2.42,0-4.62-1.4-6.28-3.27-1.24-1.23-2.47-.75-3.49-.05l-2.09,1.5c-1.77,1.45-1.07,3.54,.11,4.72,3.17,3.17,7.19,5.31,11.76,5.37ZM60.38,48c-6.35,0-11.5,5.15-11.5,11.5v60.34c0,1.82-.36,3.49-1.01,5.03-.97,2.31-2.63,4.31-4.7,5.7-2.08,1.4-4.51,2.2-7.23,2.2-1.82,0-3.49-.36-5.03-1.01-2.31-.97-4.31-2.63-5.7-4.7-1.4-2.08-2.2-4.51-2.2-7.23v-9.3c0-6.35-5.15-11.5-11.5-11.5S0,104.19,0,110.54H0v9.3c0,4.93,1.01,9.69,2.83,13.99,2.74,6.46,7.28,11.93,13.01,15.8,5.72,3.87,12.7,6.15,20.1,6.14,4.93,0,9.69-1.01,13.99-2.83,6.46-2.74,11.93-7.28,15.8-13.01,3.87-5.72,6.15-12.7,6.14-20.1V59.5c0-6.35-5.15-11.5-11.5-11.5Zm118.29,91.21l-41.62-84.78c-1.94-3.95-5.92-6.43-10.32-6.43s-8.38,2.48-10.32,6.43c0,0-.38,.78-1.08,2.21-4.91,10.01-25.51,51.97-40.54,82.57-2.8,5.7-.45,12.59,5.26,15.39,5.7,2.8,12.59,.45,15.39-5.26,10.06-20.5,22.62-46.08,31.3-63.75l31.3,63.75c2.8,5.7,9.69,8.05,15.39,5.26,5.7-2.8,8.05-9.69,5.26-15.39h0Zm165.16,0h0s-41.62-84.78-41.62-84.78c-1.94-3.95-5.92-6.43-10.32-6.43s-8.38,2.48-10.32,6.43c0,0-.38,.78-1.08,2.21-4.91,10.01-25.51,51.97-40.54,82.57-2.8,5.7-.45,12.59,5.26,15.39,5.7,2.8,12.59,.45,15.39-5.26,10.06-20.5,22.62-46.08,31.3-63.75l31.3,63.75c2.8,5.7,9.69,8.05,15.39,5.26,5.7-2.8,8.05-9.69,5.26-15.39ZM255.99,49.17c-5.7-2.8-12.59-.45-15.39,5.26-10.06,20.5-22.62,46.08-31.3,63.75l-31.3-63.75c-2.8-5.7-9.69-8.05-15.39-5.26-5.7,2.8-8.05,9.69-5.26,15.39h0s41.62,84.78,41.62,84.78c1.94,3.95,5.92,6.43,10.32,6.43s8.38-2.48,10.32-6.43c0,0,24.45-49.8,41.62-84.78,2.8-5.7,.45-12.59-5.26-15.39Z"/></svg>